0
SECTION
2
HEADER
9
$INSUNITS
70
4
9
$ACADVER
1
AC1014
9
$HANDSEED
5
FFFF
0
ENDSEC
0
SECTION
2
TABLES
0
TABLE
2
VPORT
5
8
100
AcDbSymbolTable
0
ENDTAB
0
TABLE
2
LTYPE
5
5
100
AcDbSymbolTable
0
LTYPE
5
14
100
AcDbSymbolTableRecord
100
AcDbLinetypeTableRecord
2
BYBLOCK
70
0
0
LTYPE
5
15
100
AcDbSymbolTableRecord
100
AcDbLinetypeTableRecord
2
BYLAYER
70
0
0
LTYPE
5
16
100
AcDbSymbolTableRecord
100
AcDbLinetypeTableRecord
2
DASHED
70
0
3
Dashed __ __ __ __ __ __ __ __ __ __ __ __ __ _
72
65
73
2
40
0.75
49
0.5
74
0
49
-0.25
74
0
0
ENDTAB
0
TABLE
2
LAYER
5
2
100
AcDbSymbolTable
70
3
0
LAYER
5
50
100
AcDbSymbolTableRecord
100
AcDbLayerTableRecord
2
1
70
0
62
7
6
DASHED
0
LAYER
5
51
100
AcDbSymbolTableRecord
100
AcDbLayerTableRecord
2
0
70
0
62
7
6
CONTINUOUS
0
ENDTAB
0
TABLE
2
STYLE
5
3
100
AcDbSymbolTable
70
1
0
STYLE
5
11
100
AcDbSymbolTableRecord
100
AcDbTextStyleTableRecord
2
STANDARD
70
0
0
ENDTAB
0
TABLE
2
VIEW
5
6
100
AcDbSymbolTable
70
0
0
ENDTAB
0
TABLE
2
UCS
5
7
100
AcDbSymbolTable
70
0
0
ENDTAB
0
TABLE
2
APPID
5
9
100
AcDbSymbolTable
70
2
0
APPID
5
12
100
AcDbSymbolTableRecord
100
AcDbRegAppTableRecord
2
ACAD
70
0
0
ENDTAB
0
TABLE
2
DIMSTYLE
5
A
100
AcDbSymbolTable
70
1
0
ENDTAB
0
TABLE
2
BLOCK_RECORD
5
1
100
AcDbSymbolTable
70
1
0
BLOCK_RECORD
5
1F
100
AcDbSymbolTableRecord
100
AcDbBlockTableRecord
2
*MODEL_SPACE
0
BLOCK_RECORD
5
1B
100
AcDbSymbolTableRecord
100
AcDbBlockTableRecord
2
*PAPER_SPACE
0
ENDTAB
0
ENDSEC
0
SECTION
2
BLOCKS
0
BLOCK
5
20
100
AcDbEntity
100
AcDbBlockBegin
2
*MODEL_SPACE
0
ENDBLK
5
21
100
AcDbEntity
100
AcDbBlockEnd
0
BLOCK
5
1C
100
AcDbEntity
100
AcDbBlockBegin
2
*PAPER_SPACE
0
ENDBLK
5
1D
100
AcDbEntity
100
AcDbBlockEnd
0
ENDSEC
0
SECTION
2
ENTITIES
0
LWPOLYLINE
5
100
100
AcDbEntity
8
0
100
AcDbPolyline
90
4
70
1
43
0.0
10
50.499999999999943
20
86.399999999999977
10
45.69999999999996
20
86.399999999999977
10
45.69999999999996
20
62.899999999999977
10
50.499999999999943
20
62.899999999999977
0
LWPOLYLINE
5
101
100
AcDbEntity
8
0
100
AcDbPolyline
90
4
70
1
43
0.0
10
-45.700000000000067
20
86.399999999999977
10
-50.50000000000005
20
86.399999999999977
10
-50.50000000000005
20
62.899999999999956
10
-45.700000000000067
20
62.899999999999956
0
LWPOLYLINE
5
102
100
AcDbEntity
8
0
100
AcDbPolyline
90
10
70
1
43
0.0
10
-37.500000000000064
20
62.899999999999956
10
-37.500000000000064
20
70.399999999999963
10
-32.500000000000057
20
70.399999999999963
10
-32.500000000000078
20
206.44999999999996
10
-50.500000000000078
20
206.44999999999996
10
-50.500000000000071
20
196.44999999999996
10
-37.500000000000078
20
196.44999999999996
10
-37.500000000000064
20
86.399999999999977
10
-42.300000000000068
20
86.399999999999977
10
-42.300000000000068
20
62.899999999999956
0
LWPOLYLINE
5
103
100
AcDbEntity
8
0
100
AcDbPolyline
90
10
70
1
43
0.0
10
37.499999999999943
20
70.399999999999963
10
37.499999999999943
20
62.899999999999977
10
42.299999999999962
20
62.899999999999977
10
42.299999999999962
20
86.399999999999977
10
37.499999999999943
20
86.399999999999977
10
37.499999999999929
20
196.44999999999996
10
50.499999999999929
20
196.44999999999996
10
50.499999999999915
20
206.44999999999996
10
32.499999999999915
20
206.44999999999996
10
32.499999999999936
20
70.399999999999949
0
LWPOLYLINE
5
104
100
AcDbEntity
8
0
100
AcDbPolyline
90
4
70
1
43
0.0
10
-32.500000000000007
20
130.55000000000007
10
-32.500000000000007
20
62.900000000000055
10
-32
20
62.900000000000055
10
-32
20
130.55000000000007
0
LWPOLYLINE
5
105
100
AcDbEntity
8
0
100
AcDbPolyline
90
4
70
1
43
0.0
10
32.500000000000007
20
62.900000000000055
10
32.500000000000007
20
130.55000000000007
10
32
20
130.55000000000007
10
32
20
62.900000000000055
0
LWPOLYLINE
5
106
100
AcDbEntity
8
0
100
AcDbPolyline
90
4
70
1
43
0.0
10
-32.500000000000007
20
478.55000000000007
10
-32.500000000000007
20
130.55000000000001
10
-30
20
130.55000000000001
10
-30
20
478.55000000000007
0
LWPOLYLINE
5
107
100
AcDbEntity
8
0
100
AcDbPolyline
90
4
70
1
43
0.0
10
32.500000000000007
20
130.55000000000001
10
32.500000000000007
20
478.55000000000007
10
30
20
478.55000000000007
10
30
20
130.55000000000001
0
LWPOLYLINE
5
108
100
AcDbEntity
8
0
100
AcDbPolyline
90
5
70
1
43
0.0
10
31.999999999999666
20
62.900000000001015
10
31.999999999997584
20
130.55000000000101
10
16.53999999999758
20
130.55000000000055
10
9.2599999999981986
20
110.55000000000032
10
22.024999999999665
20
62.900000000000702
0
LWPOLYLINE
5
109
100
AcDbEntity
8
0
100
AcDbPolyline
90
5
70
1
43
0.0
10
-32.000000000002416
20
130.54999999999905
10
-32.000000000000341
20
62.899999999999039
10
-22.02500000000034
20
62.899999999999352
10
-9.2600000000018046
20
110.54999999999976
10
-16.540000000002419
20
130.54999999999953
0
LWPOLYLINE
5
110
100
AcDbEntity
8
0
100
AcDbPolyline
90
12
70
1
43
0.0
10
-50.500000000000014
20
350
10
-50.500000000000014
20
337.5
10
-37.500000000000007
20
337.5
10
-37.500000000000007
20
218.94999999999999
10
-50.500000000000014
20
218.94999999999999
10
-50.500000000000014
20
206.44999999999999
10
-37.500000000000007
20
206.44999999999999
10
-37.500000000000007
20
213.94999999999999
10
-32.500000000000007
20
213.94999999999999
10
-32.500000000000007
20
342.5
10
-37.5
20
342.5
10
-37.5
20
350
0
LWPOLYLINE
5
111
100
AcDbEntity
8
0
100
AcDbPolyline
90
12
70
1
43
0.0
10
50.500000000000014
20
337.5
10
50.500000000000014
20
350
10
37.5
20
350
10
37.5
20
342.5
10
32.500000000000007
20
342.5
10
32.500000000000007
20
213.94999999999999
10
37.500000000000007
20
213.94999999999999
10
37.500000000000007
20
206.44999999999999
10
50.500000000000014
20
206.44999999999999
10
50.500000000000014
20
218.94999999999999
10
37.500000000000007
20
218.94999999999999
10
37.500000000000007
20
337.5
0
LWPOLYLINE
5
112
100
AcDbEntity
8
0
100
AcDbPolyline
90
4
70
1
43
0.0
10
30.000000000000004
20
130.00000000000003
10
30.000000000000004
20
478.00000000000011
10
25.000000000000004
20
478.00000000000017
10
25.000000000000004
20
130.00000000000006
0
LWPOLYLINE
5
113
100
AcDbEntity
8
0
100
AcDbPolyline
90
4
70
1
43
0.0
10
-30.000000000000004
20
478.00000000000017
10
-30.000000000000004
20
130.00000000000006
10
-25.000000000000004
20
130.00000000000003
10
-25.000000000000004
20
478.00000000000011
0
LWPOLYLINE
5
114
100
AcDbEntity
8
0
100
AcDbPolyline
90
6
70
1
43
0.0
10
26.427563953301274
20
46.469407642708155
10
37.499999999999957
20
46.469407642708155
10
37.499999999999957
20
50.899999999999963
10
50.499999999999964
20
50.89999999999997
10
50.499999999999964
20
62.899999999999977
10
22.024999999999942
20
62.899999999999963
0
LWPOLYLINE
5
115
100
AcDbEntity
8
0
100
AcDbPolyline
90
6
70
1
43
0.0
10
-37.500000000000064
20
46.469407642708155
10
-26.42756395330138
20
46.469407642708155
10
-22.025000000000059
20
62.899999999999963
10
-50.500000000000071
20
62.899999999999956
10
-50.500000000000071
20
50.899999999999956
10
-37.500000000000064
20
50.899999999999963
0
LWPOLYLINE
5
116
100
AcDbEntity
8
0
100
AcDbPolyline
90
4
70
1
43
0.0
10
37.499999999999957
20
36.469407642708155
10
29.107055877612499
20
36.469407642708155
10
30.063475772933632
20
32.89999999999997
10
37.499999999999957
20
32.89999999999997
0
LWPOLYLINE
5
117
100
AcDbEntity
8
0
100
AcDbPolyline
90
4
70
1
43
0.0
10
-29.107055877612606
20
36.469407642708148
10
-37.500000000000064
20
36.469407642708148
10
-37.500000000000064
20
32.899999999999963
10
-30.063475772933739
20
32.899999999999963
0
LWPOLYLINE
5
118
100
AcDbEntity
8
0
100
AcDbPolyline
90
8
70
1
43
0.0
10
-50.500000000000007
20
350
10
-32.5
20
350
10
-32.500000000000014
20
493.55000000000007
10
-50.500000000000028
20
493.55000000000007
10
-50.500000000000014
20
483.55000000000007
10
-37.500000000000014
20
483.55000000000007
10
-37.500000000000007
20
360
10
-50.500000000000007
20
360
0
LWPOLYLINE
5
119
100
AcDbEntity
8
0
100
AcDbPolyline
90
8
70
1
43
0.0
10
32.5
20
350
10
50.500000000000007
20
350
10
50.500000000000007
20
360
10
37.500000000000007
20
360
10
37.499999999999993
20
483.55000000000007
10
50.5
20
483.55000000000007
10
50.499999999999986
20
493.55000000000007
10
32.499999999999986
20
493.55000000000007
0
LWPOLYLINE
5
120
100
AcDbEntity
8
0
100
AcDbPolyline
90
6
70
1
43
0.0
10
50.500000000000007
20
503.55000000000007
10
49.5
20
503.55000000000007
10
49.5
20
496.55000000000001
10
47
20
496.55000000000018
10
47
20
493.55000000000007
10
50.500000000000007
20
493.55000000000007
0
LWPOLYLINE
5
121
100
AcDbEntity
8
0
100
AcDbPolyline
90
6
70
1
43
0.0
10
-49.5
20
503.55000000000007
10
-50.500000000000007
20
503.55000000000007
10
-50.500000000000007
20
493.55000000000007
10
-47
20
493.55000000000007
10
-47
20
496.55000000000018
10
-49.5
20
496.55000000000001
0
LWPOLYLINE
5
122
100
AcDbEntity
8
0
100
AcDbPolyline
90
80
70
1
43
0.0
10
-1.5000000000000004
20
503.5
10
-2.5000000000000004
20
504.101
10
-2.5000000000000004
20
532.55000000000007
10
-7.8613
20
532.55000000000007
10
-7.8613
20
532.50249724635569
10
-6.5633600000000012
20
531.75313123796377
10
-6.5633599999999994
20
531.28929300446066
10
-7.8613
20
530.53992699606863
10
-7.8613
20
530.19340633726483
10
-6.5633600000000003
20
529.4440403288728
10
-6.5633599999999994
20
528.98020209536969
10
-7.8613000000000008
20
528.23083608697766
10
-7.8612999999999991
20
527.88431542817398
10
-6.5633600000000003
20
527.13494941978195
10
-6.5633599999999994
20
526.67111118627884
10
-7.8613
20
525.92174517788681
10
-7.8613
20
525.57522451908301
10
-6.5633600000000012
20
524.82585851069098
10
-6.5633599999999994
20
524.36202027718787
10
-7.8613000000000008
20
523.61265426879584
10
-7.8613
20
523.26613360999215
10
-6.5633600000000003
20
522.51676760160012
10
-6.5633599999999994
20
522.05292936809701
10
-7.8613
20
521.30356335970498
10
-7.8613
20
520.95704270090118
10
-6.5633600000000003
20
520.20767669250915
10
-6.5633599999999994
20
519.74383845900604
10
-7.8613
20
518.99447245061401
10
-7.8613
20
518.64795179181033
10
-6.5633600000000003
20
517.8985857834183
10
-6.5633599999999994
20
517.43474754991519
10
-7.8613
20
516.68538154152316
10
-7.8613
20
516.33886088271936
10
-6.5633600000000003
20
515.58949487432733
10
-6.5633600000000003
20
515.55000000000007
10
-6.4000000000000012
20
515.55000000000007
10
-6.4000000000000012
20
513.55000000000007
10
-21.200000000000003
20
513.55000000000007
10
-21.200000000000003
20
503.55000000000007
10
-38.500000000000007
20
503.55000000000007
10
-38.500000000000007
20
496.55000000000001
10
-41.000000000000007
20
496.55000000000018
10
-41.000000000000007
20
493.55000000000007
10
-32.5
20
493.55000000000007
10
-32.5
20
489.85000000000008
10
-27.5
20
489.85000000000008
10
-27.5
20
482.35000000000008
10
-32.5
20
482.35000000000008
10
-32.5
20
478.55000000000007
10
-11.500000000000004
20
478.55000000000007
10
-11.500000000000002
20
484.55000000000007
10
-5.1367500000000001
20
484.55000000000007
10
-5.1367499999999993
20
484.64262516136358
10
-6.113249999999999
20
485.20640769922727
10
-6.113249999999999
20
485.35192563410618
10
-5.1367500000000001
20
485.91570817196987
10
-5.1367499999999993
20
486.39262516136353
10
-6.113249999999999
20
486.95640769922727
10
-6.113249999999999
20
487.10192563410612
10
-5.1367500000000001
20
487.66570817196987
10
-5.1367499999999993
20
488.14262516136358
10
-6.113249999999999
20
488.70640769922727
10
-6.113249999999999
20
488.85192563410612
10
-5.1367500000000001
20
489.41570817196987
10
-5.1367499999999993
20
489.89262516136358
10
-6.113249999999999
20
490.45640769922727
10
-6.113249999999999
20
490.60192563410618
10
-5.1367500000000001
20
491.16570817196987
10
-5.1367499999999993
20
491.64262516136353
10
-6.113249999999999
20
492.20640769922727
10
-6.113249999999999
20
492.35192563410612
10
-5.1367500000000001
20
492.91570817196987
10
-5.1367499999999993
20
493.39262516136358
10
-5.8423439182434986
20
493.80000000000001
10
-5.1367500000000001
20
493.80000000000001
10
-4.6500000000000004
20
493.90816666666672
10
-4.6500000000000004
20
496.10000000000008
10
-3.2500000000000009
20
496.94100000000003
10
-3.2500000000000009
20
501.10000000000008
10
-1.5000000000000004
20
502.15200000000004
0
LWPOLYLINE
5
123
100
AcDbEntity
8
0
100
AcDbPolyline
90
78
70
1
43
0.0
10
2.5000000000000004
20
504.101
10
1.5000000000000004
20
503.5
10
1.5000000000000004
20
502.15200000000004
10
3.2500000000000009
20
501.10000000000008
10
3.2500000000000009
20
496.94100000000003
10
4.6500000000000004
20
496.10000000000008
10
4.6500000000000004
20
493.90816666666672
10
5.1367500000000001
20
493.80000000000001
10
5.1367500000000001
20
493.79070817196981
10
6.1132500000000007
20
493.22692563410618
10
6.113249999999999
20
493.08140769922727
10
5.1367499999999993
20
492.51762516136358
10
5.136750000000001
20
492.04070817196987
10
6.1132500000000007
20
491.47692563410624
10
6.113249999999999
20
491.33140769922727
10
5.1367499999999993
20
490.76762516136364
10
5.1367500000000001
20
490.29070817196987
10
6.113249999999999
20
489.72692563410618
10
6.113249999999999
20
489.58140769922727
10
5.1367499999999993
20
489.01762516136358
10
5.136750000000001
20
488.54070817196987
10
6.113249999999999
20
487.97692563410624
10
6.113249999999999
20
487.83140769922727
10
5.1367499999999993
20
487.26762516136364
10
5.1367500000000001
20
486.79070817196987
10
6.1132500000000007
20
486.22692563410618
10
6.113249999999999
20
486.08140769922727
10
5.1367500000000001
20
485.51762516136358
10
5.1367500000000001
20
485.04070817196981
10
5.9866814856768604
20
484.55000000000007
10
11.500000000000002
20
484.55000000000007
10
11.500000000000002
20
478.55000000000007
10
32.5
20
478.55000000000007
10
32.5
20
482.35000000000008
10
27.5
20
482.35000000000008
10
27.5
20
489.85000000000008
10
32.5
20
489.85000000000008
10
32.5
20
493.55000000000007
10
41.000000000000007
20
493.55000000000007
10
41.000000000000007
20
496.55000000000018
10
38.500000000000007
20
496.55000000000001
10
38.500000000000007
20
503.55000000000007
10
21.200000000000003
20
503.55000000000007
10
21.200000000000003
20
513.55000000000007
10
6.4000000000000012
20
513.55000000000007
10
6.4000000000000012
20
515.55000000000007
10
7.8281071331368572
20
515.55000000000007
10
6.5633599999999994
20
516.28020209536965
10
6.5633600000000003
20
516.74404032887287
10
7.8613
20
517.49340633726479
10
7.8612999999999991
20
517.83992699606858
10
6.5633600000000003
20
518.58929300446061
10
6.5633600000000012
20
519.05313123796373
10
7.8613
20
519.80249724635564
10
7.8612999999999991
20
520.14901790515955
10
6.5633599999999994
20
520.89838391355147
10
6.5633600000000012
20
521.36222214705458
10
7.8613000000000008
20
522.11158815544661
10
7.8613
20
522.45810881425041
10
6.5633599999999994
20
523.20747482264233
10
6.5633600000000012
20
523.67131305614544
10
7.8613
20
524.42067906453747
10
7.8613
20
524.76719972334126
10
6.5633599999999994
20
525.51656573173329
10
6.5633600000000003
20
525.98040396523641
10
7.8613
20
526.72976997362844
10
7.8613
20
527.07629063243223
10
6.5633599999999994
20
527.82565664082415
10
6.5633600000000003
20
528.28949487432737
10
7.8613
20
529.03886088271929
10
7.8613
20
529.3853815415232
10
6.5633600000000003
20
530.13474754991512
10
6.5633600000000003
20
530.59858578341823
10
7.8613000000000008
20
531.34795179181026
10
7.8613
20
531.69447245061406
10
6.5633599999999994
20
532.44383845900597
10
6.5633600000000003
20
532.55000000000007
10
2.5000000000000004
20
532.55000000000007
0
ENDSEC
0
SECTION
2
OBJECTS
0
DICTIONARY
5
C
100
AcDbDictionary
3
ACAD_GROUP
350
D
3
ACAD_MLINESTYLE
350
17
0
DICTIONARY
5
D
100
AcDbDictionary
0
DICTIONARY
5
1A
330
C
100
AcDbDictionary
0
DICTIONARY
5
17
100
AcDbDictionary
0
ENDSEC
0
EOF
