0
SECTION
2
HEADER
9
$INSUNITS
70
4
9
$ACADVER
1
AC1014
9
$HANDSEED
5
FFFF
0
ENDSEC
0
SECTION
2
TABLES
0
TABLE
2
VPORT
5
8
100
AcDbSymbolTable
0
ENDTAB
0
TABLE
2
LTYPE
5
5
100
AcDbSymbolTable
0
LTYPE
5
14
100
AcDbSymbolTableRecord
100
AcDbLinetypeTableRecord
2
BYBLOCK
70
0
0
LTYPE
5
15
100
AcDbSymbolTableRecord
100
AcDbLinetypeTableRecord
2
BYLAYER
70
0
0
LTYPE
5
16
100
AcDbSymbolTableRecord
100
AcDbLinetypeTableRecord
2
DASHED
70
0
3
Dashed __ __ __ __ __ __ __ __ __ __ __ __ __ _
72
65
73
2
40
0.75
49
0.5
74
0
49
-0.25
74
0
0
ENDTAB
0
TABLE
2
LAYER
5
2
100
AcDbSymbolTable
70
3
0
LAYER
5
50
100
AcDbSymbolTableRecord
100
AcDbLayerTableRecord
2
1
70
0
62
7
6
DASHED
0
LAYER
5
51
100
AcDbSymbolTableRecord
100
AcDbLayerTableRecord
2
0
70
0
62
7
6
CONTINUOUS
0
ENDTAB
0
TABLE
2
STYLE
5
3
100
AcDbSymbolTable
70
1
0
STYLE
5
11
100
AcDbSymbolTableRecord
100
AcDbTextStyleTableRecord
2
STANDARD
70
0
0
ENDTAB
0
TABLE
2
VIEW
5
6
100
AcDbSymbolTable
70
0
0
ENDTAB
0
TABLE
2
UCS
5
7
100
AcDbSymbolTable
70
0
0
ENDTAB
0
TABLE
2
APPID
5
9
100
AcDbSymbolTable
70
2
0
APPID
5
12
100
AcDbSymbolTableRecord
100
AcDbRegAppTableRecord
2
ACAD
70
0
0
ENDTAB
0
TABLE
2
DIMSTYLE
5
A
100
AcDbSymbolTable
70
1
0
ENDTAB
0
TABLE
2
BLOCK_RECORD
5
1
100
AcDbSymbolTable
70
1
0
BLOCK_RECORD
5
1F
100
AcDbSymbolTableRecord
100
AcDbBlockTableRecord
2
*MODEL_SPACE
0
BLOCK_RECORD
5
1B
100
AcDbSymbolTableRecord
100
AcDbBlockTableRecord
2
*PAPER_SPACE
0
ENDTAB
0
ENDSEC
0
SECTION
2
BLOCKS
0
BLOCK
5
20
100
AcDbEntity
100
AcDbBlockBegin
2
*MODEL_SPACE
0
ENDBLK
5
21
100
AcDbEntity
100
AcDbBlockEnd
0
BLOCK
5
1C
100
AcDbEntity
100
AcDbBlockBegin
2
*PAPER_SPACE
0
ENDBLK
5
1D
100
AcDbEntity
100
AcDbBlockEnd
0
ENDSEC
0
SECTION
2
ENTITIES
0
LWPOLYLINE
5
100
100
AcDbEntity
8
0
100
AcDbPolyline
90
18
70
1
43
0.0
10
19.407719672501354
20
2.6500000000000004
10
19.918451198674777
20
1.8000000000000003
10
22.081549427173996
20
1.8000000000000012
10
22.952797324763957
20
3.25
10
30.000000298023224
20
3.25
10
30.000000298023224
20
8.0000001192092896
10
26.200000372529033
20
8.0000001192092896
10
26.200000372529033
20
6.0000000894069672
10
23.000000342726707
20
6.0000000894069672
10
23.000000298023224
20
25.00000037252903
10
18.000000298023224
20
25.00000037252903
10
18.000000298023224
20
12.000000178813934
10
0
20
12.000000178813934
10
2.3201791330029759e-32
20
6.4000000000000012
10
-2.0000002831220609
20
6.4000000000000012
10
-2.0000002831220609
20
7.8816199999999998
10
-19.000000283122063
20
7.8816199999999998
10
-19.000000283122063
20
2.6500000000000004
0
LWPOLYLINE
5
101
100
AcDbEntity
8
0
100
AcDbPolyline
90
10
70
1
43
0.0
10
-14.000000283122063
20
-6.1353800745058065
10
-19.000000283122063
20
-6.1353800745058065
10
-19.000000283122063
20
-7.8816199999999998
10
-2.0000002831220609
20
-7.8816199999999998
10
-2.0000002831220609
20
-6.4000000000000012
10
0
20
-6.4000000000000012
10
0
20
-12.000000178813934
10
7.8830001490116119
20
-12.000000178813934
10
7.8830001490116119
20
-5.750000074505806
10
-14.000000283122063
20
-5.750000074505806
0
LWPOLYLINE
5
102
100
AcDbEntity
8
0
100
AcDbPolyline
90
20
70
1
43
0.0
10
-19.000000283122063
20
-3.8646200745058055
10
-14.000000283122063
20
-3.8646200745058055
10
-14.000000283122063
20
-4.250000074505806
10
7.8830001490116119
20
-4.250000074505806
10
7.8830001490116119
20
-4.0000001788139343
10
12.117000149011613
20
-4.0000001788139343
10
12.117000149011613
20
-12.000000178813934
10
18.000000298023224
20
-12.000000178813934
10
18.000000298023224
20
-25.00000037252903
10
23.000000298023224
20
-25.00000037252903
10
23.000000342726707
20
-6.0000000894069672
10
26.200000372529033
20
-6.0000000894069672
10
26.200000372529033
20
-8.0000001192092896
10
30.000000298023224
20
-8.0000001192092896
10
30.000000417232513
20
-3.25
10
22.952797324763957
20
-3.25
10
22.081549427173996
20
-1.8000000000000012
10
19.918451198674777
20
-1.8000000000000003
10
19.407719672501354
20
-2.6500000000000004
10
-19.000000283122063
20
-2.6500000000000004
0
LWPOLYLINE
5
103
100
AcDbEntity
8
0
100
AcDbPolyline
90
15
70
1
43
0.0
10
32.400000402331351
20
4.5499999999999989
10
32.400000402331351
20
3.2499999999999991
10
37.8763888666046
20
3.2499999999999991
10
44.000000610947609
20
13.856406667027557
10
44.000000610947609
20
15.000000223517416
10
34.000000536441803
20
15.000000223517416
10
34.000000536441803
20
29.5
10
33.000000536441803
20
29.5
10
33.000000447034836
20
40
10
28.00000037252903
20
40
10
28.00000037252903
20
25.00000037252903
10
23.000000298023224
20
25.00000037252903
10
23.000000298023224
20
8.0000001192092896
10
30.000000402331352
20
8.0000001192092878
10
30.000000402331352
20
4.5499999999999989
0
LWPOLYLINE
5
104
100
AcDbEntity
8
0
100
AcDbPolyline
90
15
70
1
43
0.0
10
32.400000402331351
20
-3.2500000000000013
10
32.400000402331351
20
-4.5500000000000016
10
30.000000402331352
20
-4.5500000000000016
10
30.000000402331352
20
-8.0000001192092913
10
23.000000298023224
20
-8.0000001192092913
10
23.000000298023224
20
-25.00000037252903
10
28.00000037252903
20
-25.00000037252903
10
28.00000037252903
20
-40
10
33.000000447034836
20
-40
10
33.000000536441803
20
-29.5
10
34.000000536441803
20
-29.5
10
34.000000536441803
20
-15.00000022351742
10
44.000000610947609
20
-15.00000022351742
10
44.000000610947609
20
-13.85640666702756
10
37.8763888666046
20
-3.2500000000000018
0
LWPOLYLINE
5
105
100
AcDbEntity
8
0
100
AcDbPolyline
90
24
70
1
43
0.0
10
36.400000447034834
20
-29.500000439584255
10
33.000000447034836
20
-29.500000439584255
10
33.000000447034836
20
-40
10
40.000000536441796
20
-40
10
40.000000536441796
20
-31.000000461935997
10
43.000000596046448
20
-31.000000461935997
10
43.000000596046448
20
-30.000000447034836
10
46.000000640749931
20
-30.000000447034836
10
46.000000640749931
20
-29.000000432133675
10
49.000000685453415
20
-29.000000432133675
10
49.000000685453415
20
-28.000000417232513
10
139.00000202655792
20
-28.000000417232513
10
139.00000202655792
20
-29.000000432133675
10
142.00000207126141
20
-29.000000432133675
10
142.00000207126141
20
-30.000000447034836
10
145.00000211596489
20
-30.000000447034836
10
145.00000211596489
20
-31.000000461935997
10
148.00000214576721
20
-31.000000461935997
10
148.00000217556953
20
-40
10
153.00000223517415
20
-40
10
153.00000223517415
20
-29.499999999999993
10
154.00000223517418
20
-29.499999999999993
10
154.00000223517418
20
-25.00000037252903
10
36.400000447034841
20
-25.00000037252903
0
LWPOLYLINE
5
106
100
AcDbEntity
8
0
100
AcDbPolyline
90
24
70
1
43
0.0
10
33.000000447034836
20
29.500000439584255
10
36.400000447034834
20
29.500000439584255
10
36.400000447034834
20
25.00000037252903
10
154.00000223517418
20
25.00000037252903
10
154.00000223517418
20
29.499999999999993
10
153.00000223517415
20
29.499999999999993
10
153.00000223517415
20
40
10
148.00000217556953
20
40
10
148.00000214576721
20
31.000000461935997
10
145.00000211596489
20
31.000000461935997
10
145.00000211596489
20
30.000000452001888
10
142.00000207126141
20
30.000000447034836
10
142.00000207126141
20
29.000000432133675
10
139.00000202655792
20
29.000000432133675
10
139.00000202655792
20
28.000000422199566
10
49.000000670552254
20
28.000000417232513
10
49.000000685453415
20
29.000000432133675
10
46.000000625848763
20
29.000000432133675
10
46.000000640749931
20
30.000000447034836
10
43.000000581145279
20
30.000000447034836
10
43.000000596046448
20
31.000000461935997
10
40.000000536441796
20
31.000000461935997
10
40.000000536441796
20
40
10
33.000000447034836
20
40
0
LWPOLYLINE
5
107
100
AcDbEntity
8
0
100
AcDbPolyline
90
24
70
1
43
0.0
10
156.40000044703484
20
-29.500000439584255
10
153.00000044703484
20
-29.500000439584255
10
153.00000044703484
20
-40
10
160.0000005364418
20
-40
10
160.0000005364418
20
-31.000000461935997
10
163.00000059604645
20
-31.000000461935997
10
163.00000059604645
20
-30.000000447034836
10
166.00000064074993
20
-30.000000447034836
10
166.00000064074993
20
-29.000000432133675
10
169.00000068545341
20
-29.000000432133675
10
169.00000068545341
20
-28.000000417232513
10
259.00000202655792
20
-28.000000417232513
10
259.00000202655792
20
-29.000000432133675
10
262.00000207126141
20
-29.000000432133675
10
262.00000207126141
20
-30.000000447034836
10
265.00000211596489
20
-30.000000447034836
10
265.00000211596489
20
-31.000000461935997
10
268.00000214576721
20
-31.000000461935997
10
268.00000217556953
20
-40
10
273.00000223517418
20
-40
10
273.00000223517418
20
-29.499999999999993
10
274.00000223517418
20
-29.499999999999993
10
274.00000223517418
20
-25.00000037252903
10
156.40000044703484
20
-25.00000037252903
0
LWPOLYLINE
5
108
100
AcDbEntity
8
0
100
AcDbPolyline
90
24
70
1
43
0.0
10
153.00000044703484
20
29.500000439584255
10
156.40000044703484
20
29.500000439584255
10
156.40000044703484
20
25.00000037252903
10
274.00000223517418
20
25.00000037252903
10
274.00000223517418
20
29.499999999999993
10
273.00000223517418
20
29.499999999999993
10
273.00000223517418
20
40
10
268.00000217556953
20
40
10
268.00000214576721
20
31.000000461935997
10
265.00000211596489
20
31.000000461935997
10
265.00000211596489
20
30.000000452001888
10
262.00000207126141
20
30.000000447034836
10
262.00000207126141
20
29.000000432133675
10
259.00000202655792
20
29.000000432133675
10
259.00000202655792
20
28.000000422199566
10
169.00000067055228
20
28.000000417232513
10
169.00000068545341
20
29.000000432133675
10
166.00000062584877
20
29.000000432133675
10
166.00000064074993
20
30.000000447034836
10
163.00000058114529
20
30.000000447034836
10
163.00000059604645
20
31.000000461935997
10
160.0000005364418
20
31.000000461935997
10
160.0000005364418
20
40
10
153.00000044703484
20
40
0
LWPOLYLINE
5
109
100
AcDbEntity
8
0
100
AcDbPolyline
90
24
70
1
43
0.0
10
276.40000044703481
20
-29.500000439584255
10
273.00000044703484
20
-29.500000439584255
10
273.00000044703484
20
-40
10
280.0000005364418
20
-40
10
280.0000005364418
20
-31.000000461935997
10
283.00000059604645
20
-31.000000461935997
10
283.00000059604645
20
-30.000000447034836
10
286.00000064074993
20
-30.000000447034836
10
286.00000064074993
20
-29.000000432133675
10
289.00000068545341
20
-29.000000432133675
10
289.00000068545341
20
-28.000000417232513
10
379.00000202655792
20
-28.000000417232513
10
379.00000202655792
20
-29.000000432133675
10
382.00000207126141
20
-29.000000432133675
10
382.00000207126141
20
-30.000000447034836
10
385.00000211596489
20
-30.000000447034836
10
385.00000211596489
20
-31.000000461935997
10
388.00000214576721
20
-31.000000461935997
10
388.00000217556953
20
-40
10
393.00000223517418
20
-40
10
393.00000223517418
20
-29.499999999999993
10
394.00000223517418
20
-29.499999999999993
10
394.00000223517418
20
-25.00000037252903
10
276.40000044703481
20
-25.00000037252903
0
LWPOLYLINE
5
110
100
AcDbEntity
8
0
100
AcDbPolyline
90
24
70
1
43
0.0
10
273.00000044703484
20
29.500000439584255
10
276.40000044703481
20
29.500000439584255
10
276.40000044703481
20
25.00000037252903
10
394.00000223517418
20
25.00000037252903
10
394.00000223517418
20
29.499999999999993
10
393.00000223517418
20
29.499999999999993
10
393.00000223517418
20
40
10
388.00000217556953
20
40
10
388.00000214576721
20
31.000000461935997
10
385.00000211596489
20
31.000000461935997
10
385.00000211596489
20
30.000000452001888
10
382.00000207126141
20
30.000000447034836
10
382.00000207126141
20
29.000000432133675
10
379.00000202655792
20
29.000000432133675
10
379.00000202655792
20
28.000000422199566
10
289.00000067055225
20
28.000000417232513
10
289.00000068545341
20
29.000000432133675
10
286.00000062584877
20
29.000000432133675
10
286.00000064074993
20
30.000000447034836
10
283.00000058114529
20
30.000000447034836
10
283.00000059604645
20
31.000000461935997
10
280.0000005364418
20
31.000000461935997
10
280.0000005364418
20
40
10
273.00000044703484
20
40
0
LWPOLYLINE
5
111
100
AcDbEntity
8
0
100
AcDbPolyline
90
8
70
1
43
0.0
10
394.00000238418579
20
23.000000327825543
10
394.00000238418579
20
12.55513474153094
10
410.99999623000622
20
8.0000001192092878
10
414.87564704227509
20
8.0000001192092931
10
441.00000308454037
20
15.000000223517416
10
441.00000308454037
20
17.980602066942172
10
435.00000250339508
20
17.980602066942172
10
435.00000250339508
20
23.000000327825543
0
LWPOLYLINE
5
112
100
AcDbEntity
8
0
100
AcDbPolyline
90
8
70
1
43
0.0
10
394.00000238418579
20
-12.555134741530944
10
394.00000238418579
20
-23.000000327825543
10
435.00000250339508
20
-23.000000327825543
10
435.00000250339508
20
-17.980602066942176
10
441.00000308454037
20
-17.980602066942176
10
441.00000308454037
20
-15.00000022351742
10
414.87564704227509
20
-8.0000001192092949
10
410.99999623000622
20
-8.0000001192092913
0
LWPOLYLINE
5
113
100
AcDbEntity
8
0
100
AcDbPolyline
90
12
70
1
43
0.0
10
393.00000223517418
20
40.000000596046448
10
393.00000238418579
20
29.5
10
396.40000238418577
20
29.5
10
396.40000238418577
20
25.00000037252903
10
435.00000286102295
20
25.000000342726707
10
435.00000286102295
20
18.000000268220905
10
448.00000305473804
20
18.000000268220905
10
448.00000305473804
20
20.000000298023224
10
438.00000290572643
20
20.000000298023224
10
438.00000290572643
20
28.000000372529033
10
400.00000229477882
20
28.000000372529033
10
400.00000229477882
20
40.000000596046448
0
LWPOLYLINE
5
114
100
AcDbEntity
8
0
100
AcDbPolyline
90
12
70
1
43
0.0
10
393.00000238418579
20
-29.5
10
393.00000223517418
20
-40.000000596046448
10
400.00000229477882
20
-40.000000596046448
10
400.00000229477882
20
-28.000000372529033
10
438.00000290572643
20
-28.000000372529033
10
438.00000290572643
20
-20.000000298023224
10
448.00000305473804
20
-20.000000298023224
10
448.00000305473804
20
-18.000000268220905
10
435.00000286102295
20
-18.000000268220905
10
435.00000286102295
20
-25.000000342726707
10
396.40000238418577
20
-25.00000037252903
10
396.40000238418577
20
-29.5
0
LWPOLYLINE
5
115
100
AcDbEntity
8
0
100
AcDbPolyline
90
4
70
1
43
0.0
10
34.000000536441803
20
-23.000000000000004
10
394.0000005364418
20
-23.000000000000004
10
394.0000005364418
20
-15.000000000000002
10
34.000000536441775
20
-15.000000000000002
0
LWPOLYLINE
5
116
100
AcDbEntity
8
0
100
AcDbPolyline
90
4
70
1
43
0.0
10
394.0000005364418
20
23.000000000000004
10
34.000000536441775
20
23.000000000000004
10
34.000000536441803
20
14.999999999999998
10
394.0000005364418
20
14.999999999999998
0
ENDSEC
0
SECTION
2
OBJECTS
0
DICTIONARY
5
C
100
AcDbDictionary
3
ACAD_GROUP
350
D
3
ACAD_MLINESTYLE
350
17
0
DICTIONARY
5
D
100
AcDbDictionary
0
DICTIONARY
5
1A
330
C
100
AcDbDictionary
0
DICTIONARY
5
17
100
AcDbDictionary
0
ENDSEC
0
EOF
